#!OML:ASF H:\Male1\Project 1\Capture day 1\Session 1\Male1.ASF
:FULLY-SPECIFIED
:DEGREES
887
root 10.0657 15.241 -2.89111 -342.818 -101.179 341.431
lowerback 6.05281 -1.84215 -0.156711
upperback 2.4758 -2.53261 -0.818805
thorax -0.873165 -1.28909 -0.582619
lowerneck -2.01616 8.56354 11.2968
upperneck -2.52679 11.1498 -7.65434
head 0.708419 5.48925 -4.27436
rclavicle 5.26779e-015 -5.36719e-015
rhumerus -17.9088 36.6429 -70.2885
rradius 71.1756
rwrist -27.7345
rhand -9.25309 -1.01302
rfingers 7.12502
rthumb 16.7028 -30.3144
lclavicle 5.26779e-015 -5.36719e-015
lhumerus 15.7888 -67.489 76.4565
lradius 43.2932
lwrist -6.10875
lhand 15.9906 -0.45418
lfingers 7.12502
lthumb 40.7833 24.5307
rfemur -19.3031 14.3895 18.9351
rtibia 36.31
rfoot -20.9545 -16.5109
rtoes -26.76
lfemur 1.93029 -0.655269 -23.1839
ltibia 31.8829
lfoot -28.1303 25.707
ltoes -6.94366
888
root 10.0461 15.2387 -2.85589 -344.502 -101.758 343.052
lowerback 6.07138 -1.75293 -0.00292316
upperback 2.65891 -2.40977 -0.795787
thorax -0.699318 -1.22928 -0.656552
lowerneck -2.02432 8.74617 11.3949
upperneck -2.53742 11.3923 -7.84592
head 0.75147 5.60989 -4.34646
rclavicle -1.2598e-014 5.76476e-015
rhumerus -19.3313 36.6933 -71.8224
rradius 71.1511
rwrist -28.1685
rhand -9.4511 -0.856309
rfingers 7.12502
rthumb 16.5122 -30.1737
lclavicle -1.2598e-014 5.76476e-015
lhumerus 13.784 -67.8048 78.8105
lradius 43.4544
lwrist -5.41528
lhand 14.6138 -0.742075
lfingers 7.12502
lthumb 39.488 24.6364
rfemur -19.2306 14.5111 18.9756
rtibia 36.247
rfoot -20.7717 -16.0487
rtoes -27.2795
lfemur 2.00299 -0.660945 -23.0027
ltibia 32.0169
lfoot -28.057 25.4157
ltoes -6.63999
889
root 10.0325 15.2371 -2.82078 -344.685 -102.124 343.23
lowerback 6.45469 -1.74318 -0.0975779
upperback 2.44186 -2.4014 -0.794401
thorax -1.13123 -1.22413 -0.58505
lowerneck -1.8299 8.83028 11.475
upperneck -2.13702 11.5354 -8.28537
head 0.804441 5.68896 -4.04353
rclavicle -1.0138e-014 -2.78299e-015
rhumerus -21.3718 36.8292 -73.6479
rradius 71.1903
rwrist -28.3823
rhand -9.51821 -1.10175
rfingers 7.12502
rthumb 16.4476 -30.4245
lclavicle -1.0138e-014 -2.78299e-015
lhumerus 8.13291 -66.5748 84.552
lradius 44.1606
lwrist -5.76387
lhand 13.465 -0.842404
lfingers 7.12502
lthumb 38.4048 24.8455
rfemur -19.2366 14.5124 18.7546
rtibia 36.1997
rfoot -20.7092 -15.6355
rtoes -27.3829
lfemur 1.98634 -0.803243 -23.0287
ltibia 32.1543
lfoot -27.6911 25.4019
ltoes -7.15132
890
root 10.0219 15.2375 -2.78718 -344.79 -102.319 343.362
lowerback 6.2669 -1.73828 -0.204353
upperback 2.57234 -2.40232 -0.788101
thorax -0.888266 -1.22645 -0.528014
lowerneck -1.76076 8.96904 11.5381
upperneck -2.14544 11.7285 -8.35498
head 0.817504 5.78651 -4.06713
rclavicle 3.34704e-014 0
rhumerus -22.6007 36.6422 -75.0294
rradius 71.1177
rwrist -28.5064
rhand -9.65049 -1.30162
rfingers 7.12502
rthumb 16.3202 -30.6349
lclavicle 3.34704e-014 0
lhumerus 6.53193 -66.3018 86.2675
lradius 44.5263
lwrist -5.24342
lhand 11.3095 -1.57469
lfingers 7.12502
lthumb 36.3672 24.6507
rfemur -19.2469 14.6802 18.5693
rtibia 36.1403
rfoot -20.6634 -15.524
rtoes -27.3378
lfemur 1.98254 -0.973316 -22.9791
ltibia 32.2873
lfoot -27.4075 25.3274
ltoes -7.24958
891
root 10.015 15.2371 -2.75246 -345.709 -102.318 344.291
lowerback 6.19858 -1.75186 -0.0962757
upperback 2.61981 -2.41343 -0.7356
thorax -0.803778 -1.23191 -0.537204
lowerneck -1.76263 9.04422 11.5403
upperneck -1.91864 11.8392 -8.29897
head 0.892023 5.84526 -4.03865
rclavicle 6.67916e-014 -5.1684e-015
rhumerus -23.8845 36.3155 -76.494
rradius 70.9327
rwrist -28.583
rhand -9.59172 -1.59752
rfingers 7.12502
rthumb 16.3768 -30.9261
lclavicle 6.67916e-014 -5.1684e-015
lhumerus 5.61778 -66.57 87.2016
lradius 44.7532
lwrist -4.05636
lhand 8.56458 -1.85692
lfingers 7.12502
lthumb 33.7637 24.979
rfemur -19.1968 14.8344 18.6182
rtibia 36.0501
rfoot -20.5505 -15.6117
rtoes -27.5525
lfemur 2.06473 -1.16298 -22.6646
ltibia 32.3873
lfoot -27.1894 25.2736
ltoes -7.49809
892
root 10.0127 15.236 -2.71607 -346.758 -102.208 345.238
lowerback 6.20747 -1.74566 0.0317059
upperback 2.69496 -2.39896 -0.69011
thorax -0.734524 -1.22491 -0.564404
lowerneck -1.82484 9.07159 11.5053
upperneck -1.64984 11.8801 -8.1652
head 0.974637 5.86866 -3.98124
rclavicle 9.19379e-015 -2.38542e-015
rhumerus -25.0992 35.8267 -77.8913
rradius 70.6087
rwrist -28.9745
rhand -9.35363 -1.91023
rfingers 7.12502
rthumb 16.606 -31.2198
lclavicle 9.19379e-015 -2.38542e-015
lhumerus 4.74016 -66.5849 88.1363
lradius 44.8974
lwrist -3.19247
lhand 6.40137 -1.96977
lfingers 7.12502
lthumb 31.7057 25.2948
rfemur -19.0149 14.8926 18.715
rtibia 35.9224
rfoot -20.4091 -15.7118
rtoes -27.833
lfemur 2.27963 -1.42067 -22.2964
ltibia 32.4435
lfoot -26.9774 25.3212
ltoes -7.74632
893
root 10.0127 15.2364 -2.67698 -347.252 -102.061 345.607
lowerback 6.1976 -1.72328 0.0455237
upperback 2.74733 -2.36943 -0.678273
thorax -0.674942 -1.21067 -0.563444
lowerneck -1.74836 9.07073 11.6168
upperneck -1.58365 11.889 -8.20303
head 0.991772 5.87542 -4.01013
rclavicle -3.06625e-014 1.45113e-014
rhumerus -26.2659 35.384 -79.1594
rradius 70.1992
rwrist -29.7424
rhand -9.43667 -1.53718
rfingers 7.12502
rthumb 16.5261 -30.8534
lclavicle -3.06625e-014 1.45113e-014
lhumerus 3.78914 -66.3135 89.1845
lradius 44.9127
lwrist -2.73939
lhand 4.60206 -2.01754
lfingers 7.12502
lthumb 29.9903 25.5715
rfemur -18.8452 14.8621 18.6652
rtibia 35.8256
rfoot -20.3413 -15.6911
rtoes -27.8027
lfemur 2.56944 -1.86575 -22.0693
ltibia 32.3997
lfoot -27.0698 25.1918
ltoes -6.56318
894
root 10.0201 15.2373 -2.63245 -347.203 -101.777 345.449
lowerback 6.25312 -1.69813 0.0686661
upperback 2.74051 -2.33538 -0.719222
thorax -0.714994 -1.19336 -0.618659
lowerneck -1.59937 8.89393 11.7113
upperneck -1.49469 11.6727 -8.26537
head 0.98296 5.7722 -4.05845
rclavicle -1.01877e-014 -5.96354e-015
rhumerus -27.4248 34.8697 -80.3189
rradius 69.8173
rwrist -30.3096
rhand -9.71474 -1.10795
rfingers 7.12502
rthumb 16.2583 -30.4463
lclavicle -1.01877e-014 -5.96354e-015
lhumerus 2.83817 -65.9572 90.2156
lradius 44.8197
lwrist -2.47512
lhand 2.74903 -1.98951
lfingers 7.12502
lthumb 28.2207 25.9056
rfemur -18.7294 14.7841 18.4906
rtibia 35.7896
rfoot -20.4052 -15.7052
rtoes -27.6064
lfemur 2.89727 -2.57515 -21.9802
ltibia 32.2422
lfoot -27.2915 24.9327
ltoes -4.45962
895
root 10.0337 15.2332 -2.58491 -346.109 -101.434 344.19
lowerback 6.23818 -1.64567 -0.11456
upperback 2.82867 -2.2793 -0.789461
thorax -0.611239 -1.16746 -0.594333
lowerneck -1.74463 8.81984 11.9355
upperneck -1.37923 11.5596 -8.46209
head 1.05463 5.71287 -4.14544
rclavicle -2.68359e-014 4.57205e-015
rhumerus -28.3207 34.2761 -81.2153
rradius 69.3929
rwrist -30.3798
rhand -10.3338 -0.8653
rfingers 7.12502
rthumb 15.6622 -30.2514
lclavicle -2.68359e-014 4.57205e-015
lhumerus 2.47275 -65.5751 90.7274
lradius 44.6157
lwrist -2.15298
lhand 0.793875 -1.81522
lfingers 7.12502
lthumb 26.3505 26.3741
rfemur -18.6024 14.9079 18.0903
rtibia 35.8006
rfoot -20.5375 -15.9743
rtoes -27.6213
lfemur 3.31246 -3.2943 -22.1429
ltibia 31.9852
lfoot -27.0554 24.7943
ltoes -5.11249
896
root 10.0498 15.2251 -2.5353 -345.535 -101.019 343.519
lowerback 6.62317 -1.63937 -0.264674
upperback 2.5203 -2.27555 -0.735461
thorax -1.13394 -1.16312 -0.436509
lowerneck -1.61701 8.66516 12.0156
upperneck -0.966501 11.3861 -8.55794
head 1.14984 5.63529 -4.18976
rclavicle -1.1778e-014 -5.96354e-016
rhumerus -29.8228 33.8887 -82.3537
rradius 68.9299
rwrist -30.0972
rhand -11.1422 -0.428742
rfingers 7.12502
rthumb 14.8835 -29.8741
lclavicle -1.1778e-014 -5.96354e-016
lhumerus 0.104995 -64.2271 93.1377
lradius 44.3235
lwrist -2.42463
lhand -0.783411 -1.76421
lfingers 7.12502
lthumb 24.8398 26.6422
rfemur -18.5484 15.1549 17.8129
rtibia 35.8583
rfoot -20.7375 -16.2949
rtoes -27.4863
lfemur 3.69028 -3.98188 -22.1418
ltibia 31.6268
lfoot -26.3888 24.555
ltoes -8.38312
